<?xml version="1.0" encoding="iso-8859-1"?>
<!-- Generator: Adobe Illustrator 19.0.0, SVG Export Plug-In . SVG Version: 6.00 Build 0)  -->
<svg version="1.1" id="Capa_1" xmlns="http://www.w3.org/2000/svg" xmlns:xlink="http://www.w3.org/1999/xlink" x="0px" y="0px"
	 viewBox="0 0 511.996 511.996" style="enable-background:new 0 0 511.996 511.996;" xml:space="preserve">
<path style="fill:#FFBBC0;" d="M339.922,310.361c43.805-38.246,48.314-104.758,10.079-148.563s-104.758-48.314-148.563-10.079
	s-48.314,104.758-10.079,148.563c3.13,3.58,6.489,6.949,10.079,10.079c-42.945,14.478-80.281,42.025-106.787,78.791l40.595,29.197
	c53.614-74.761,157.692-91.899,232.453-38.276c15.828,11.349,29.537,25.387,40.515,41.475l41.295-28.197
	C422.962,354.526,384.487,325.4,339.922,310.361z M270.73,175.977c30.536,0.06,55.244,24.857,55.194,55.393
	c-0.06,30.536-24.857,55.244-55.394,55.194s-55.244-24.857-55.194-55.394c0-0.07,0-0.13,0-0.2
	C215.557,200.534,240.294,175.977,270.73,175.977z"/>
<path style="fill:#FF485A;" d="M270.73,14.696c-88.9,0.2-170.53,49.154-212.575,127.485l-9.999-23.197
	c-5.219-12.788-19.808-18.918-32.596-13.698s-18.918,19.808-13.698,32.596l0,0l32.496,79.991
	c5.399,12.709,20.078,18.628,32.776,13.238c0.11-0.04,0.21-0.09,0.32-0.14l79.991-32.496c12.788-5.219,18.918-19.808,13.698-32.596
	c-5.219-12.789-19.808-18.918-32.596-13.698l-23.997,9.999c52.194-91.779,168.91-123.865,260.689-71.672
	s123.866,168.91,71.672,260.689s-168.91,123.865-260.689,71.672c-46.075-26.197-79.201-70.352-91.469-121.906
	c-2.94-13.488-16.258-22.037-29.747-19.098s-22.037,16.258-19.098,29.747c0.08,0.35,0.16,0.7,0.25,1.04
	C67.474,442.186,197.849,521.797,327.364,490.49s209.135-161.691,177.819-291.206C479.016,91.007,382.127,14.726,270.73,14.696z"/>
<g>
</g>
<g>
</g>
<g>
</g>
<g>
</g>
<g>
</g>
<g>
</g>
<g>
</g>
<g>
</g>
<g>
</g>
<g>
</g>
<g>
</g>
<g>
</g>
<g>
</g>
<g>
</g>
<g>
</g>
</svg>
