<?xml version="1.0" encoding="iso-8859-1"?>
<!-- Generator: Adobe Illustrator 19.0.0, SVG Export Plug-In . SVG Version: 6.00 Build 0)  -->
<svg version="1.1" id="Capa_1" xmlns="http://www.w3.org/2000/svg" xmlns:xlink="http://www.w3.org/1999/xlink" x="0px" y="0px"
	 viewBox="0 0 512 512" style="enable-background:new 0 0 512 512;" xml:space="preserve">
<path style="fill:#FF485A;" d="M256,318.136c-63.12-0.06-114.27-51.21-114.33-114.33V114.33C141.67,51.19,192.86,0,256,0
	s114.33,51.19,114.33,114.33v89.476C370.27,266.926,319.12,318.076,256,318.136z M256,49.709
	c-35.671,0.06-64.562,28.95-64.621,64.621v89.476c0,35.691,28.93,64.621,64.621,64.621s64.621-28.93,64.621-64.621V114.33
	C320.562,78.659,291.671,49.768,256,49.709z"/>
<g>
	<path style="fill:#FFBBC0;" d="M256,417.553c-118.009-0.109-213.638-95.739-213.748-213.748V169.01
		c0-13.73,11.125-24.854,24.854-24.854s24.854,11.125,24.854,24.854v34.796c0,90.599,73.44,164.039,164.039,164.039
		s164.039-73.44,164.039-164.039V169.01c0-13.73,11.125-24.854,24.854-24.854c13.73,0,24.854,11.125,24.854,24.854v34.796
		C469.638,321.814,374.009,417.444,256,417.553z"/>
	<path style="fill:#FFBBC0;" d="M256,512c-13.73,0-24.854-11.125-24.854-24.854V397.67c0-13.73,11.125-24.854,24.854-24.854
		s24.854,11.125,24.854,24.854v89.476C280.854,500.875,269.73,512,256,512z"/>
</g>
<g>
</g>
<g>
</g>
<g>
</g>
<g>
</g>
<g>
</g>
<g>
</g>
<g>
</g>
<g>
</g>
<g>
</g>
<g>
</g>
<g>
</g>
<g>
</g>
<g>
</g>
<g>
</g>
<g>
</g>
</svg>
