<?xml version="1.0" encoding="iso-8859-1"?>
<!-- Generator: Adobe Illustrator 19.0.0, SVG Export Plug-In . SVG Version: 6.00 Build 0)  -->
<svg version="1.1" id="Capa_1" xmlns="http://www.w3.org/2000/svg" xmlns:xlink="http://www.w3.org/1999/xlink" x="0px" y="0px"
	 viewBox="0 0 512.005 512.005" style="enable-background:new 0 0 512.005 512.005;" xml:space="preserve">
<g>
	<path style="fill:#FF485A;" d="M424.172,428.999l41.242-41.34c9.535-9.535,9.535-24.979,0-34.515
		c-9.535-9.535-24.979-9.535-34.515,0l-41.242,41.34l-41.242-41.242c-9.535-9.535-24.979-9.535-34.515,0
		c-9.535,9.535-9.535,24.979,0,34.515l41.34,41.242l-41.242,41.34c-9.535,9.535-9.535,24.979,0,34.515
		c9.535,9.535,24.979,9.535,34.515,0l41.242-41.34l41.242,41.34c9.535,9.535,24.979,9.535,34.515,0
		c9.535-9.535,9.535-24.979,0-34.515L424.172,428.999z"/>
	<path style="fill:#FF485A;" d="M248.965,311.999c-61.903-0.059-112.066-50.222-112.125-112.125v-87.75
		C136.841,50.203,187.043,0,248.965,0S361.09,50.203,361.09,112.125v87.75C361.031,261.777,310.868,311.94,248.965,311.999z
		 M248.965,48.75c-34.983,0.059-63.316,28.392-63.375,63.375v87.75c0,35.002,28.372,63.375,63.375,63.375
		s63.375-28.372,63.375-63.375v-87.75C312.282,77.142,283.948,48.808,248.965,48.75z"/>
</g>
<path style="fill:#FFBBC0;" d="M248.965,502.123c-13.465,0-24.375-10.91-24.375-24.375v-69.615
	C119.008,395.644,39.448,306.188,39.341,199.874v-34.125c0-13.465,10.91-24.375,24.375-24.375s24.375,10.91,24.375,24.375v34.125
	c0.107,88.803,72.072,160.767,160.874,160.874c13.465,0,24.375,10.91,24.375,24.375v92.625
	C273.34,491.213,262.43,502.123,248.965,502.123z"/>
<g>
</g>
<g>
</g>
<g>
</g>
<g>
</g>
<g>
</g>
<g>
</g>
<g>
</g>
<g>
</g>
<g>
</g>
<g>
</g>
<g>
</g>
<g>
</g>
<g>
</g>
<g>
</g>
<g>
</g>
</svg>
