<?xml version="1.0" encoding="iso-8859-1"?>
<!-- Generator: Adobe Illustrator 19.0.0, SVG Export Plug-In . SVG Version: 6.00 Build 0)  -->
<svg version="1.1" id="Capa_1" xmlns="http://www.w3.org/2000/svg" xmlns:xlink="http://www.w3.org/1999/xlink" x="0px" y="0px"
	 viewBox="0 0 512 512" style="enable-background:new 0 0 512 512;" xml:space="preserve">
<path style="fill:#FFBBC0;" d="M265.942,512c-13.73,0-24.854-11.125-24.854-24.854V357.903c0-13.73,11.125-24.854,24.854-24.854
	s24.854,11.125,24.854,24.854v129.243C290.796,500.875,279.671,512,265.942,512z"/>
<path style="fill:#FF485A;" d="M375.301,109.359h-44.738V89.476h4.971c35.671-0.06,64.562-28.95,64.621-64.621
	C400.155,11.125,389.031,0,375.301,0h-69.592c-13.73,0-24.854,11.125-24.854,24.854v84.505H171.495
	c-2.784,0.03-5.538,0.537-8.152,1.491c-5.518-0.944-11.105-1.442-16.702-1.491h-2.386c-56.31,0.06-101.943,45.692-102.002,102.002
	v121.687c0,13.73,11.125,24.854,24.854,24.854h377.786c13.73,0,24.854-11.125,24.854-24.854V203.806
	C469.688,151.671,427.435,109.419,375.301,109.359z M151.612,308.194h-59.65v-96.833c0-28.881,23.413-52.294,52.294-52.294h2.386
	c30.173,0.06,54.62,24.506,54.68,54.68v94.447H151.612z M420.039,308.194h-169.01v-94.447c0-19.327-5.408-38.266-15.609-54.68
	h45.434v9.942c0,13.73,11.125,24.854,24.854,24.854s24.854-11.125,24.854-24.854v-9.942h44.738
	c24.705,0,44.738,20.033,44.738,44.738V308.194z"/>
<g>
</g>
<g>
</g>
<g>
</g>
<g>
</g>
<g>
</g>
<g>
</g>
<g>
</g>
<g>
</g>
<g>
</g>
<g>
</g>
<g>
</g>
<g>
</g>
<g>
</g>
<g>
</g>
<g>
</g>
</svg>
