<?xml version="1.0" encoding="iso-8859-1"?>
<!-- Generator: Adobe Illustrator 19.0.0, SVG Export Plug-In . SVG Version: 6.00 Build 0)  -->
<svg version="1.1" id="Capa_1" xmlns="http://www.w3.org/2000/svg" xmlns:xlink="http://www.w3.org/1999/xlink" x="0px" y="0px"
	 viewBox="0 0 512.001 512.001" style="enable-background:new 0 0 512.001 512.001;" xml:space="preserve">
<path style="fill:#FFBBC0;" d="M239.742,251.078c-5.76,0.01-11.333-2.018-15.754-5.711l-48.345-40.271
	c-10.703-8.389-12.574-23.857-4.194-34.56c8.379-10.703,23.857-12.574,34.56-4.194c0.423,0.335,0.837,0.679,1.241,1.044l30.72,25.6
	l68.923-72.074c9.403-9.817,24.99-10.142,34.806-0.738c9.817,9.403,10.142,24.99,0.738,34.806l0,0l-85.071,88.615
	C252.749,248.38,246.388,251.078,239.742,251.078z"/>
<path style="fill:#FF485A;" d="M503.619,444.456l-21.268-384c-1.89-34.028-30.119-60.613-64.197-60.455H90.868
	C56.702-0.039,28.542,26.812,26.967,60.948l-18.511,384c-1.684,35.308,25.57,65.29,60.879,66.983
	c1.004,0.049,2.009,0.069,3.023,0.069h367.262c35.348,0,64-28.652,64-64c0-1.182-0.03-2.363-0.098-3.545H503.619z M76.197,63.311
	c0.364-7.847,6.814-14.031,14.671-14.08h327.286c7.936-0.118,14.543,6.055,14.966,13.982l13.391,242.018H64.48L76.197,63.311z
	 M450.351,458.142c-2.786,2.964-6.666,4.638-10.732,4.628H72.357c-8.153,0.01-14.779-6.597-14.789-14.75
	c0-0.236,0.01-0.473,0.02-0.709l4.529-92.849h387.151l5.218,92.751c0.217,4.047-1.241,7.995-4.037,10.929H450.351z"/>
<path style="fill:#FFBBC0;" d="M118.044,433.231c-1.625-0.02-3.239-0.177-4.825-0.492c-1.585-0.305-3.131-0.768-4.628-1.378
	c-1.477-0.62-2.895-1.378-4.234-2.265c-1.31-0.935-2.56-1.95-3.742-3.052c-1.103-1.172-2.117-2.422-3.052-3.742
	c-1.802-2.678-3.042-5.691-3.643-8.862c-0.679-3.249-0.679-6.597,0-9.846c0.61-3.17,1.841-6.183,3.643-8.862
	c0.935-1.319,1.95-2.57,3.052-3.742c1.172-1.103,2.422-2.117,3.742-3.052c2.678-1.802,5.691-3.033,8.862-3.643
	c3.249-0.62,6.597-0.62,9.846,0c3.17,0.601,6.183,1.841,8.862,3.643c1.319,0.935,2.57,1.95,3.742,3.052
	c4.569,4.657,7.148,10.91,7.188,17.428c-0.02,1.625-0.177,3.239-0.492,4.825c-0.305,1.585-0.768,3.131-1.378,4.628
	c-0.62,1.477-1.378,2.895-2.265,4.234c-0.935,1.31-1.95,2.56-3.052,3.742C130.991,430.534,124.66,433.192,118.044,433.231z"/>
<g>
</g>
<g>
</g>
<g>
</g>
<g>
</g>
<g>
</g>
<g>
</g>
<g>
</g>
<g>
</g>
<g>
</g>
<g>
</g>
<g>
</g>
<g>
</g>
<g>
</g>
<g>
</g>
<g>
</g>
</svg>
