<?xml version="1.0" encoding="iso-8859-1"?>
<!-- Generator: Adobe Illustrator 19.0.0, SVG Export Plug-In . SVG Version: 6.00 Build 0)  -->
<svg version="1.1" id="Capa_1" xmlns="http://www.w3.org/2000/svg" xmlns:xlink="http://www.w3.org/1999/xlink" x="0px" y="0px"
	 viewBox="0 0 512 512" style="enable-background:new 0 0 512 512;" xml:space="preserve">
<path style="fill:#FF485A;" d="M43.162,512c-13.671,0-24.749-11.077-24.749-24.749V64.346C18.472,28.827,47.24,0.059,82.759,0
	h346.481c35.519,0.059,64.287,28.827,64.346,64.346V361.33c-0.059,35.519-28.827,64.287-64.346,64.346H166.905
	c-3.306,0.02-6.504,1.138-9.108,3.168l-99.787,77.909C53.764,510.07,48.547,511.911,43.162,512z M82.759,49.497
	c-8.197,0-14.849,6.652-14.849,14.849v372.22l59.397-46.725c11.315-8.82,25.244-13.632,39.598-13.661h262.336
	c8.197,0,14.849-6.652,14.849-14.849V64.346c0-8.197-6.652-14.849-14.849-14.849L82.759,49.497L82.759,49.497z"/>
<g>
	<path style="fill:#FFBBC0;" d="M315.397,188.09H196.603c-13.671,0-24.749-11.077-24.749-24.749
		c0-13.671,11.077-24.749,24.749-24.749h118.793c13.671,0,24.749,11.077,24.749,24.749
		C340.145,177.012,329.068,188.09,315.397,188.09z"/>
	<path style="fill:#FFBBC0;" d="M315.397,287.084H196.603c-13.671,0-24.749-11.077-24.749-24.749
		c0-13.671,11.077-24.749,24.749-24.749h118.793c13.671,0,24.749,11.077,24.749,24.749
		C340.145,276.007,329.068,287.084,315.397,287.084z"/>
</g>
<g>
</g>
<g>
</g>
<g>
</g>
<g>
</g>
<g>
</g>
<g>
</g>
<g>
</g>
<g>
</g>
<g>
</g>
<g>
</g>
<g>
</g>
<g>
</g>
<g>
</g>
<g>
</g>
<g>
</g>
</svg>
