<?xml version="1.0" encoding="iso-8859-1"?>
<!-- Generator: Adobe Illustrator 19.0.0, SVG Export Plug-In . SVG Version: 6.00 Build 0)  -->
<svg version="1.1" id="Capa_1" xmlns="http://www.w3.org/2000/svg" xmlns:xlink="http://www.w3.org/1999/xlink" x="0px" y="0px"
	 viewBox="0 0 512 512" style="enable-background:new 0 0 512 512;" xml:space="preserve">
<path style="fill:#FFBBC0;" d="M128.877,512c-32.285-0.07-59.633-23.801-64.25-55.756L22.96,165.471
	c-5.046-35.482,19.585-68.347,55.057-73.443l79.038-11.291l7.094,49.162l-79.038,11.591c-8.194,1.179-13.879,8.783-12.69,16.977
	v0.01l41.667,290.673c1.239,8.164,8.803,13.819,16.987,12.69l219.329-31.475c6.755-0.979,11.441-7.234,10.492-13.989l-2.598-17.986
	l49.461-7.094l2.598,17.986c4.696,34.023-18.965,65.449-52.959,70.345L138.07,511.301C135.023,511.75,131.955,511.98,128.877,512z"
	/>
<path style="fill:#FF485A;" d="M424.746,419.672H204.918c-35.852-0.06-64.889-29.097-64.949-64.949V64.949
	C140.029,29.097,169.066,0.06,204.918,0h219.828c35.852,0.06,64.889,29.097,64.949,64.949v289.774
	C489.635,390.575,460.588,419.612,424.746,419.672z M204.918,49.961c-8.274,0-14.988,6.715-14.988,14.988v289.774
	c0,8.274,6.715,14.988,14.988,14.988h219.828c8.274,0,14.988-6.715,14.988-14.988V64.949c0-8.274-6.715-14.988-14.988-14.988
	H204.918z"/>
<g>
	<path style="fill:#FFBBC0;" d="M369.789,219.828c0,29.217-23.691,52.909-52.909,52.909c-29.217,0-52.909-23.691-52.909-52.909
		H369.789z"/>
	<circle style="fill:#FFBBC0;" cx="249.903" cy="169.867" r="19.984"/>
	<circle style="fill:#FFBBC0;" cx="379.801" cy="169.867" r="19.984"/>
</g>
<g>
</g>
<g>
</g>
<g>
</g>
<g>
</g>
<g>
</g>
<g>
</g>
<g>
</g>
<g>
</g>
<g>
</g>
<g>
</g>
<g>
</g>
<g>
</g>
<g>
</g>
<g>
</g>
<g>
</g>
</svg>
