<?xml version="1.0" encoding="iso-8859-1"?>
<!-- Generator: Adobe Illustrator 19.0.0, SVG Export Plug-In . SVG Version: 6.00 Build 0)  -->
<svg version="1.1" id="Capa_1" xmlns="http://www.w3.org/2000/svg" xmlns:xlink="http://www.w3.org/1999/xlink" x="0px" y="0px"
	 viewBox="0 0 512.003 512.003" style="enable-background:new 0 0 512.003 512.003;" xml:space="preserve">
<path style="fill:#FF485A;" d="M487.975,136.764c-14.779-7.631-32.601-6.302-46.08,3.446l-77.588,55.631v-57.305
	c-0.059-32.985-26.782-59.707-59.766-59.766H59.766C26.782,78.83,0.059,105.552,0,138.537v234.929
	c0.059,32.985,26.782,59.707,59.766,59.766h244.775c32.985-0.059,59.707-26.782,59.766-59.766v-63.212l76.308,59.077
	c19.367,14.956,47.193,11.372,62.149-7.995c6.026-7.808,9.275-17.398,9.236-27.254V176.543
	C512.187,159.795,502.883,144.385,487.975,136.764z M315.077,373.466c0,5.819-4.716,10.535-10.535,10.535H59.766
	c-5.819,0-10.535-4.716-10.535-10.535V138.537c0-5.819,4.716-10.535,10.535-10.535h244.775c5.819,0,10.535,4.716,10.535,10.535
	V373.466z M462.769,324.235l-81.625-63.015c-4.647-3.495-5.583-10.102-2.087-14.75c0.591-0.788,1.3-1.487,2.087-2.087l81.625-58.585
	V324.235z"/>
<path style="fill:#FFBBC0;" d="M246.154,344.617h-128c-13.598,0-24.615-11.018-24.615-24.615s11.018-24.615,24.615-24.615h128
	c13.598,0,24.615,11.018,24.615,24.615S259.751,344.617,246.154,344.617z"/>
<g>
</g>
<g>
</g>
<g>
</g>
<g>
</g>
<g>
</g>
<g>
</g>
<g>
</g>
<g>
</g>
<g>
</g>
<g>
</g>
<g>
</g>
<g>
</g>
<g>
</g>
<g>
</g>
<g>
</g>
</svg>
