<?xml version="1.0" encoding="iso-8859-1"?>
<!-- Generator: Adobe Illustrator 19.0.0, SVG Export Plug-In . SVG Version: 6.00 Build 0)  -->
<svg version="1.1" id="Capa_1" xmlns="http://www.w3.org/2000/svg" xmlns:xlink="http://www.w3.org/1999/xlink" x="0px" y="0px"
	 viewBox="0 0 512 512" style="enable-background:new 0 0 512 512;" xml:space="preserve">
<path style="fill:#FFBBC0;" d="M256.042,512c-38.435,0-69.592-31.157-69.592-69.592v-34.796c0-13.73,11.125-24.854,24.854-24.854
	h89.476c13.73,0,24.854,11.125,24.854,24.854v34.796C325.634,480.843,294.477,512,256.042,512z M236.158,432.466v9.942
	c0,10.986,8.898,19.883,19.884,19.883c10.986,0,19.883-8.898,19.883-19.883v-9.942H236.158z"/>
<path style="fill:#FF485A;" d="M415.706,432.466H96.378c-24.705,0.02-44.758-19.993-44.768-44.708
	c0-5.627,1.054-11.204,3.112-16.434l13.223-33.703c12.626-31.903,19.098-65.904,19.088-100.213V169.01
	C87.032,75.667,162.699,0,256.042,0s169.01,75.667,169.01,169.01v68.399c-0.04,34.299,6.402,68.3,18.989,100.213l13.223,33.703
	c9.057,22.985-2.227,48.963-25.222,58.03C426.841,431.402,421.304,432.456,415.706,432.466z M103.635,382.757h304.814
	l-10.638-26.942c-14.883-37.699-22.508-77.874-22.468-118.406V169.01c0-65.884-53.417-119.301-119.301-119.301
	S136.741,103.126,136.741,169.01v68.399c0.04,40.532-7.586,80.707-22.468,118.406L103.635,382.757z"/>
<g>
</g>
<g>
</g>
<g>
</g>
<g>
</g>
<g>
</g>
<g>
</g>
<g>
</g>
<g>
</g>
<g>
</g>
<g>
</g>
<g>
</g>
<g>
</g>
<g>
</g>
<g>
</g>
<g>
</g>
</svg>
