<svg class="DesktopSearchBarstyle__FilterButtonIcon-ilqw08-6 ySbwT" xmlns="http://www.w3.org/2000/svg" width="32" height="32" fill="#FF485A" viewBox="0 0 32 32"><path  d="M4.068 12.746a1.085 1.085 0 0 1-1.085-1.085V1.085a1.085 1.085 0 0 1 2.17 0v10.576c0 .599-.486 1.085-1.085 1.085z"></path><path d="M4.068 19.254a4.068 4.068 0 1 1 4.068-4.068 4.068 4.068 0 0 1-4.068 4.068zm0-5.966a1.898 1.898 0 1 0 1.898 1.898c0-1.048-.85-1.898-1.898-1.898z"></path><path d="M4.068 32a1.085 1.085 0 0 1-1.085-1.085V18.712a1.085 1.085 0 0 1 2.17 0v12.203c0 .599-.486 1.085-1.085 1.085zM14.644 18.169a1.085 1.085 0 0 1-1.085-1.085v-16a1.085 1.085 0 0 1 2.17 0v16c0 .599-.486 1.085-1.085 1.085z"></path><path d="M14.644 24.678a4.068 4.068 0 1 1 4.068-4.068 4.068 4.068 0 0 1-4.068 4.068zm0-5.966a1.898 1.898 0 1 0 1.898 1.898c0-1.048-.85-1.898-1.898-1.898z"></path><path d="M14.644 32a1.085 1.085 0 0 1-1.085-1.085v-6.78a1.085 1.085 0 0 1 2.17 0v6.78c0 .599-.486 1.085-1.085 1.085zM25.22 10.034a1.085 1.085 0 0 1-1.085-1.085V1.085a1.085 1.085 0 0 1 2.17 0v7.864c0 .599-.486 1.085-1.085 1.085z"></path><path d="M25.22 16.542a4.068 4.068 0 1 1 4.068-4.068 4.068 4.068 0 0 1-4.068 4.068zm0-5.966a1.898 1.898 0 1 0 1.898 1.898c0-1.048-.85-1.898-1.898-1.898z"></path><path d="M25.22 32a1.085 1.085 0 0 1-1.085-1.085V16a1.085 1.085 0 0 1 2.17 0v14.915c0 .599-.486 1.085-1.085 1.085z"></path></svg>