<svg name="icon_search" class="DesktopSearchBarstyle__SearchIcon-ilqw08-5 iXiCKc" xmlns="http://www.w3.org/2000/svg" width="32" height="32" viewBox="0 0 32 32"><path fill='#FF485A' d="M13.363 24.843c-6.67 0-12.078-5.407-12.078-12.078S6.692.687 13.363.687c6.67 0 12.078 5.407 12.078 12.078-.021 6.662-5.416 12.057-12.076 12.078h-.002zm0-22.097c-5.51 0-9.977 4.467-9.977 9.977S7.853 22.7 13.363 22.7c5.51 0 9.977-4.467 9.977-9.977-.018-5.503-4.474-9.959-9.975-9.977h-.002zM29.369 31.354h-.006c-.288 0-.55-.116-.74-.305l-4.931-4.936a1.048 1.048 0 0 1 .704-1.829c.308 0 .584.132.776.343l.001.001 4.936 4.936a1.048 1.048 0 0 1 0 1.486c-.19.188-.451.305-.74.305h-.001z"></path></svg>